# xmcd CD database file
#
# Track frame offsets:
#	150
#	11702
#	24020
#	78355
#	89290
#	103045
#	115700
#	125932
#	139405
#	152147
#	165252
#
# Disc length: 2358 seconds
#
# Revision: 2
# Processed by: cddbd v1.4PL0 Copyright (c) Steve Scherf et al.
# Submitted via: CDex 1.50beta10
#
DISCID=8109340b
DTITLE=Sonny Boy Williamson - Bummer Road (Remasted)
DYEAR=1997
DGENRE=Blues
TTITLE0=She Got Next To Me
TTITLE1=Santa Claus
TTITLE2=Little Villiage
TTITLE3=Your Funeral and My Trail (alt. take)
TTITLE4=Lonesome Cabin
TTITLE5=I Can't Do Without You
TTITLE6=Temperature 110
TTITLE7=Unseen Eye
TTITLE8=Keep Your Hand Out of My Pocket
TTITLE9=Open Road
TTITLE10=This Old Life
EXTD=YEAR: 1997
EXTT0=
EXTT1=
EXTT2=
EXTT3=Previously unreleased in US bonus track\n
EXTT4=
EXTT5=
EXTT6=
EXTT7=
EXTT8=
EXTT9=
EXTT10=
PLAYORDER=
